<?xml version="1.0" standalone="no"?>
<!DOCTYPE svg PUBLIC "-//W3C//DTD SVG 20010904//EN"
 "http://www.w3.org/TR/2001/REC-SVG-20010904/DTD/svg10.dtd">
<svg version="1.0" xmlns="http://www.w3.org/2000/svg"
 width="500.000000pt" height="500.000000pt" viewBox="0 0 500.000000 500.000000"
 preserveAspectRatio="xMidYMid meet">
<metadata>
Created by potrace 1.13, written by Peter Selinger 2001-2015
</metadata>
<g transform="translate(0.000000,500.000000) scale(0.100000,-0.100000)"
fill="#000000" stroke="none">
<path d="M2595 4705 c-145 -33 -236 -83 -369 -205 -154 -140 -216 -150 -486
-79 -151 40 -175 44 -280 43 -187 -1 -346 -50 -433 -133 -107 -101 -111 -229
-8 -289 42 -25 57 -27 192 -33 168 -7 249 -29 323 -85 82 -62 97 -127 47 -205
-34 -55 -86 -89 -132 -89 -19 0 -76 9 -128 20 -123 26 -224 26 -295 0 -70 -27
-138 -87 -170 -152 -26 -52 -34 -112 -17 -122 5 -4 5 -23 0 -48 -28 -123 -90
-196 -212 -252 -86 -39 -140 -83 -170 -140 -33 -61 -32 -225 2 -313 41 -110
100 -162 332 -296 75 -43 127 -67 147 -67 18 0 75 23 135 55 159 83 250 101
354 70 68 -20 126 -64 170 -131 50 -75 50 -124 2 -220 -85 -168 -207 -317
-313 -381 -161 -97 -185 -125 -193 -235 -15 -198 63 -293 288 -352 121 -32
258 -50 320 -42 67 9 117 33 229 106 200 132 292 151 505 103 85 -19 145 -46
181 -81 32 -32 63 -97 64 -131 0 -65 -77 -160 -176 -216 -281 -159 -377 -295
-306 -432 50 -96 122 -149 236 -173 97 -20 169 -2 367 93 154 74 239 97 359
98 161 1 236 -26 438 -158 63 -40 131 -82 153 -93 64 -33 166 -52 284 -53 170
-1 259 32 375 140 32 29 72 75 88 101 41 64 77 184 97 322 33 236 55 352 85
452 60 201 60 378 1 503 -55 117 -110 157 -280 199 l-105 27 -52 -52 c-75 -74
-99 -132 -98 -239 0 -47 10 -143 23 -215 29 -159 22 -196 -44 -262 -55 -56
-85 -56 -212 -2 -141 60 -176 65 -331 49 -203 -20 -290 -2 -319 67 -26 63 -21
120 17 191 37 70 42 74 134 102 119 37 212 123 223 207 6 49 -17 99 -80 169
-54 59 -103 87 -262 149 -222 85 -308 144 -355 239 -42 84 -49 159 -22 212 26
51 85 104 116 104 38 0 138 -74 269 -199 153 -145 188 -173 274 -213 127 -60
285 -47 409 35 67 45 87 76 92 145 5 74 -17 164 -64 261 -31 62 -60 98 -180
220 -155 157 -193 214 -202 301 -10 109 38 169 250 311 82 56 167 122 192 150
84 94 98 215 39 341 -55 117 -223 271 -353 323 -61 24 -230 24 -319 1 -122
-33 -186 -75 -368 -246 -131 -123 -186 -154 -270 -155 -47 0 -68 5 -89 21 -45
33 -67 70 -72 122 -4 46 -1 53 46 118 28 38 87 100 131 138 137 115 201 213
201 309 0 43 -5 53 -42 93 -75 78 -240 112 -383 79z m247 -51 c33 -10 73 -30
95 -49 34 -29 38 -38 37 -76 -2 -85 -52 -157 -205 -291 -87 -77 -168 -183
-176 -231 -8 -50 14 -114 54 -158 50 -55 81 -69 156 -69 94 0 156 35 307 175
221 204 295 240 495 240 l120 0 75 -40 c102 -55 226 -177 270 -267 26 -55 32
-79 32 -131 -1 -119 -38 -169 -210 -283 -189 -125 -246 -175 -278 -240 -40
-81 -38 -157 6 -249 27 -56 56 -92 164 -199 178 -177 221 -247 248 -404 10
-59 9 -72 -6 -104 -23 -47 -89 -90 -185 -118 -154 -47 -260 -5 -457 178 -235
220 -307 270 -366 256 -60 -13 -143 -109 -162 -185 -17 -74 46 -233 120 -298
56 -49 173 -110 310 -162 59 -22 124 -49 146 -60 55 -28 126 -101 149 -154 18
-40 18 -48 6 -78 -29 -68 -118 -128 -234 -157 -97 -24 -175 -191 -144 -306 33
-121 136 -157 372 -129 152 17 176 14 318 -47 123 -54 171 -56 233 -12 26 19
54 53 71 84 34 65 35 122 7 275 -38 204 -21 304 63 383 l35 34 88 -22 c153
-38 201 -74 256 -195 21 -45 23 -65 23 -190 0 -133 -2 -147 -38 -265 -24 -82
-47 -196 -67 -330 -36 -244 -68 -366 -115 -437 -45 -68 -154 -157 -224 -184
-112 -43 -336 -35 -446 15 -27 13 -99 55 -160 95 -212 139 -334 180 -500 168
-114 -9 -181 -29 -335 -101 -186 -87 -227 -99 -314 -94 -116 8 -189 55 -240
155 -36 72 -11 138 86 229 35 33 111 87 168 120 209 122 271 237 204 373 -33
65 -95 112 -184 140 -155 48 -287 55 -390 21 -82 -28 -96 -35 -226 -120 -59
-38 -123 -75 -142 -81 -54 -18 -230 -5 -345 25 -117 30 -190 68 -231 119 -31
38 -31 41 -31 152 l0 114 35 36 c19 20 71 57 115 82 100 58 169 128 255 259
163 246 168 336 30 475 -70 71 -140 99 -243 99 -96 0 -130 -10 -276 -83 l-124
-61 -51 28 c-133 73 -263 155 -302 189 -97 86 -140 279 -88 402 18 45 64 80
160 126 90 43 152 97 184 159 29 57 60 183 60 244 0 65 36 113 114 151 73 35
144 41 247 20 155 -31 192 -35 231 -24 67 18 144 104 162 182 25 107 -105 234
-274 265 -30 6 -111 14 -180 17 -130 7 -167 18 -194 57 -33 47 -6 141 54 191
85 72 241 117 408 117 78 0 121 -7 255 -42 131 -34 179 -42 252 -43 83 0 95 3
151 33 33 18 101 70 151 116 50 45 118 97 151 114 125 67 294 89 414 56z"/>
</g>
</svg>
