<?xml version="1.0" standalone="no"?>
<!DOCTYPE svg PUBLIC "-//W3C//DTD SVG 20010904//EN"
 "http://www.w3.org/TR/2001/REC-SVG-20010904/DTD/svg10.dtd">
<svg version="1.0" xmlns="http://www.w3.org/2000/svg"
 width="500.000000pt" height="500.000000pt" viewBox="0 0 500.000000 500.000000"
 preserveAspectRatio="xMidYMid meet">
<metadata>
Created by potrace 1.13, written by Peter Selinger 2001-2015
</metadata>
<g transform="translate(0.000000,500.000000) scale(0.100000,-0.100000)"
fill="#000000" stroke="none">
<path d="M2160 4561 c-91 -29 -149 -65 -265 -162 -119 -99 -187 -137 -262
-145 -72 -9 -250 12 -413 48 -129 28 -151 30 -205 21 -167 -29 -300 -152 -381
-352 l-25 -60 20 -95 c30 -147 125 -305 224 -372 122 -82 229 -108 477 -118
265 -11 478 -43 583 -90 132 -58 173 -185 122 -372 -28 -99 -106 -168 -217
-193 -89 -20 -208 29 -363 149 -99 77 -235 170 -295 200 -67 35 -182 39 -286
11 -170 -47 -261 -138 -294 -295 -33 -158 50 -321 238 -468 144 -111 189 -171
179 -235 -10 -58 -73 -176 -121 -223 -26 -26 -104 -78 -187 -125 -165 -93
-249 -164 -321 -274 -139 -213 -106 -420 81 -504 35 -16 77 -22 171 -27 173
-8 210 -30 273 -161 23 -49 53 -91 83 -118 95 -88 530 -273 709 -301 114 -18
240 6 341 65 53 31 130 116 137 152 6 30 -14 112 -43 181 -30 70 -41 139 -24
153 8 6 48 16 89 22 140 20 241 -15 395 -139 169 -136 496 -347 596 -385 l89
-34 185 0 c135 1 209 6 274 18 301 60 487 210 503 406 5 54 2 76 -15 113 -34
77 -51 83 -205 72 -226 -15 -339 -11 -453 18 -159 41 -321 116 -459 213 -210
149 -216 154 -302 281 -44 65 -107 151 -138 189 -93 113 -100 134 -99 310 1
204 32 354 114 540 61 140 203 304 305 351 74 35 161 33 240 -5 103 -49 145
-116 145 -232 0 -90 -65 -255 -194 -488 -110 -198 -125 -277 -86 -440 42 -173
137 -288 302 -365 109 -51 165 -66 245 -66 149 0 333 161 333 292 0 56 -32
129 -115 267 -41 68 -82 146 -91 173 -35 107 1 256 84 341 44 46 86 68 172 91
231 61 306 121 346 276 14 54 14 75 4 138 -42 264 -162 415 -432 546 -69 34
-127 69 -142 86 -33 39 -50 127 -43 221 7 110 31 155 114 221 107 86 162 172
163 253 0 80 -92 195 -202 251 -153 78 -311 72 -478 -18 -160 -85 -273 -189
-380 -348 -113 -169 -181 -230 -256 -230 -62 0 -146 66 -165 131 -10 33 -8 44
28 125 56 124 66 158 65 228 0 99 -43 178 -129 237 -95 66 -232 86 -343 50z
m225 -43 c87 -21 162 -88 191 -170 27 -78 13 -154 -55 -298 -17 -36 -31 -80
-31 -99 0 -110 138 -225 245 -205 45 8 116 55 159 106 19 22 64 84 101 139
137 205 323 347 518 395 160 40 365 -46 440 -185 22 -40 27 -58 21 -86 -10
-58 -76 -145 -149 -200 -95 -72 -119 -124 -123 -270 -7 -194 23 -244 197 -327
242 -115 347 -231 401 -444 11 -43 20 -101 20 -130 0 -71 -33 -157 -77 -199
-37 -36 -139 -81 -252 -110 -131 -34 -201 -91 -258 -211 -69 -144 -54 -248 63
-440 93 -153 114 -200 114 -260 0 -58 -33 -120 -91 -168 -48 -41 -148 -86
-189 -86 -100 0 -283 78 -370 157 -83 76 -123 159 -150 311 -19 109 -4 156
133 413 124 233 175 385 162 483 -16 123 -86 203 -215 246 -128 43 -237 10
-364 -110 -114 -109 -187 -229 -250 -411 -74 -218 -92 -519 -38 -642 10 -23
48 -79 84 -122 35 -44 93 -122 127 -174 86 -128 119 -162 235 -242 56 -38 126
-87 156 -109 71 -51 263 -133 382 -164 152 -40 238 -49 347 -37 180 19 239 23
260 16 54 -17 69 -150 27 -240 -50 -108 -196 -206 -370 -250 -111 -28 -345
-50 -435 -41 -85 9 -197 47 -280 96 -92 53 -392 260 -471 324 -148 121 -224
150 -375 144 -73 -3 -111 -9 -140 -23 l-40 -20 1 -60 c1 -42 11 -83 32 -136
45 -109 49 -146 20 -189 -32 -47 -96 -94 -165 -121 -81 -33 -248 -34 -343 -2
-245 81 -498 195 -577 259 -31 25 -54 59 -83 119 -41 86 -73 121 -144 157 -33
17 -62 22 -151 24 -162 3 -226 31 -276 118 -55 96 -34 225 57 359 66 96 132
151 295 242 173 97 232 151 282 255 58 123 63 151 33 215 -26 58 -64 97 -191
198 -193 153 -258 326 -185 495 43 100 148 168 301 194 127 22 189 -5 444
-193 81 -60 182 -126 224 -147 68 -33 84 -37 156 -37 72 0 86 3 143 34 118 64
170 156 179 317 9 147 -37 238 -147 294 -102 52 -319 87 -610 100 -227 10
-286 21 -397 75 -124 61 -223 192 -263 351 -25 97 -25 114 0 173 16 35 26 47
42 47 16 -1 23 9 33 42 37 123 171 222 300 222 30 0 116 -14 192 -32 122 -28
156 -31 298 -32 156 -1 161 0 212 27 29 15 101 68 160 118 190 159 304 197
468 157z"/>
</g>
</svg>
