<?xml version="1.0" standalone="no"?>
<!DOCTYPE svg PUBLIC "-//W3C//DTD SVG 20010904//EN"
 "http://www.w3.org/TR/2001/REC-SVG-20010904/DTD/svg10.dtd">
<svg version="1.0" xmlns="http://www.w3.org/2000/svg"
 width="500.000000pt" height="500.000000pt" viewBox="0 0 500.000000 500.000000"
 preserveAspectRatio="xMidYMid meet">
<metadata>
Created by potrace 1.13, written by Peter Selinger 2001-2015
</metadata>
<g transform="translate(0.000000,500.000000) scale(0.100000,-0.100000)"
fill="#000000" stroke="none">
<path d="M1865 4631 c-131 -24 -163 -39 -237 -108 -92 -87 -118 -133 -118
-208 0 -73 26 -132 95 -215 57 -69 71 -115 54 -182 -36 -151 -226 -209 -357
-110 -49 37 -107 124 -138 205 -30 81 -51 115 -103 170 -50 52 -198 101 -285
94 -85 -8 -173 -54 -239 -127 -96 -106 -138 -211 -139 -350 0 -88 40 -265 71
-309 12 -16 62 -50 119 -80 127 -67 208 -132 250 -201 l34 -55 -5 -110 c-6
-133 -22 -184 -106 -326 -66 -111 -91 -171 -124 -292 -19 -71 -20 -86 -9 -150
23 -129 89 -215 175 -224 35 -4 56 2 126 38 125 62 200 142 275 289 80 157
118 213 159 239 50 31 103 27 178 -12 105 -54 138 -126 120 -256 -5 -42 -13
-117 -15 -168 -11 -189 -43 -261 -171 -388 -111 -111 -153 -134 -403 -219
-106 -36 -210 -77 -230 -90 -61 -38 -157 -151 -200 -234 -61 -118 -76 -178
-74 -312 2 -227 63 -345 198 -386 96 -29 285 -10 398 40 104 47 257 188 386
356 91 121 326 376 405 441 120 99 215 121 274 65 38 -36 65 -115 58 -166 -8
-65 -50 -141 -132 -240 -125 -152 -227 -321 -249 -414 -15 -63 69 -177 169
-228 81 -42 215 -32 409 29 174 55 283 130 368 256 54 79 76 133 93 223 22
112 18 192 -15 353 -33 160 -37 225 -16 276 23 53 102 132 165 162 103 50 202
32 413 -73 60 -30 143 -66 185 -80 143 -49 376 -43 509 12 54 23 105 75 136
139 80 170 -13 320 -277 445 -221 105 -440 171 -730 220 -232 40 -417 77 -480
97 -103 32 -215 140 -215 206 0 20 -7 69 -16 109 -22 105 -22 234 1 282 25 51
89 91 181 112 104 23 138 13 285 -83 163 -105 330 -150 514 -139 140 8 193 26
245 82 59 64 93 144 97 224 3 59 0 71 -32 130 -80 146 -116 228 -122 278 -5
47 -2 59 33 128 68 135 159 213 264 230 41 7 41 6 38 -22 -5 -44 27 -44 42 0
8 27 17 36 38 38 33 4 44 38 12 38 -20 0 -20 3 -14 80 6 73 5 83 -20 134 -58
119 -216 202 -431 226 -205 23 -253 13 -493 -96 -301 -136 -387 -155 -507
-110 -38 15 -151 74 -250 131 -220 127 -287 159 -389 185 -93 24 -101 24 -231
1z m245 -52 c79 -21 173 -69 380 -189 219 -128 303 -156 408 -140 86 14 161
41 322 115 75 35 171 75 213 90 74 27 83 28 215 22 220 -9 350 -54 442 -154
49 -52 63 -102 50 -174 -6 -29 -14 -56 -18 -59 -4 -4 -30 -12 -59 -18 -76 -17
-142 -51 -189 -98 -46 -46 -118 -163 -141 -229 -22 -66 -6 -125 83 -301 73
-144 76 -154 70 -198 -10 -63 -63 -163 -106 -197 -44 -36 -111 -49 -249 -49
-167 0 -293 39 -449 139 -126 81 -164 95 -246 88 -99 -7 -182 -40 -232 -92
-67 -69 -79 -158 -45 -358 10 -59 16 -119 13 -133 -4 -22 8 -38 74 -103 44
-42 99 -86 124 -98 58 -27 217 -62 510 -113 256 -44 317 -59 514 -127 422
-144 579 -303 483 -490 -14 -28 -38 -60 -52 -72 -74 -58 -254 -92 -393 -74
-110 14 -153 29 -332 113 -167 79 -251 104 -331 98 -110 -8 -238 -98 -290
-205 -31 -63 -30 -139 4 -305 46 -220 32 -386 -43 -513 -53 -89 -144 -177
-225 -217 -183 -92 -433 -135 -523 -89 -44 23 -108 85 -129 125 -19 37 -13 69
32 158 51 100 111 190 194 288 95 114 143 208 143 287 0 93 -52 188 -119 214
-71 27 -146 7 -250 -67 -80 -57 -333 -326 -460 -490 -147 -190 -280 -305 -395
-343 -123 -40 -269 -49 -348 -19 -43 16 -99 79 -121 137 -29 78 -37 253 -15
345 34 144 149 312 252 368 27 14 119 50 204 78 252 86 320 121 429 229 123
120 166 220 182 429 23 292 23 274 -1 330 -25 59 -68 101 -140 137 -75 38
-129 42 -184 15 -64 -30 -105 -83 -181 -231 -79 -153 -118 -204 -193 -257
-133 -93 -196 -105 -250 -49 -43 44 -72 123 -72 195 0 84 49 229 115 342 107
182 129 250 130 400 0 84 -3 101 -27 146 -39 74 -139 161 -255 221 -54 29
-108 62 -120 75 -24 25 -44 92 -64 212 -25 146 21 291 125 400 70 72 140 106
222 106 60 0 167 -29 211 -58 33 -21 88 -100 103 -147 23 -74 68 -152 120
-208 80 -87 169 -119 273 -97 118 24 194 106 204 219 7 76 -7 116 -69 193 -87
108 -109 189 -69 253 36 58 114 136 162 161 53 26 174 52 254 53 28 1 84 -8
125 -20z"/>
</g>
</svg>
