<?xml version="1.0" standalone="no"?>
<!DOCTYPE svg PUBLIC "-//W3C//DTD SVG 20010904//EN"
 "http://www.w3.org/TR/2001/REC-SVG-20010904/DTD/svg10.dtd">
<svg version="1.0" xmlns="http://www.w3.org/2000/svg"
 width="500.000000pt" height="500.000000pt" viewBox="0 0 500.000000 500.000000"
 preserveAspectRatio="xMidYMid meet">
<metadata>
Created by potrace 1.13, written by Peter Selinger 2001-2015
</metadata>
<g transform="translate(0.000000,500.000000) scale(0.100000,-0.100000)"
fill="#000000" stroke="none">
<path d="M2394 4871 c-131 -36 -236 -102 -280 -177 -21 -35 -28 -63 -32 -118
-4 -64 -1 -78 27 -140 17 -38 62 -112 101 -166 38 -53 77 -116 85 -140 32 -92
10 -187 -58 -247 -52 -46 -96 -51 -155 -21 -26 14 -95 50 -153 81 -58 30 -137
64 -175 75 -387 111 -412 115 -532 87 -168 -40 -262 -142 -262 -284 0 -86 16
-178 41 -245 57 -154 113 -179 461 -211 340 -30 440 -55 517 -128 65 -62 90
-158 52 -196 -65 -65 -230 -62 -676 13 -304 52 -351 57 -445 53 -123 -5 -184
-22 -266 -75 -67 -43 -113 -105 -177 -236 -58 -119 -70 -188 -57 -352 13 -162
36 -257 85 -354 67 -133 153 -200 257 -200 52 0 54 1 108 61 175 194 390 414
425 434 83 48 229 71 287 44 29 -13 118 -136 152 -209 36 -77 42 -145 21 -230
-32 -129 -80 -178 -296 -295 -111 -61 -300 -206 -387 -299 -86 -91 -98 -142
-62 -259 49 -157 210 -312 359 -346 138 -31 411 64 623 216 103 75 160 105
243 128 138 40 379 -15 421 -97 18 -35 18 -78 -2 -265 -15 -141 -15 -159 -1
-218 35 -143 113 -252 215 -302 52 -26 66 -28 172 -28 91 0 130 5 186 22 178
56 223 145 204 402 -14 178 -30 244 -93 376 -50 105 -52 114 -55 205 -6 173
44 327 136 419 65 65 117 91 185 91 29 0 103 5 163 11 286 28 428 83 567 222
133 133 183 237 194 402 10 155 -23 305 -87 394 -37 50 -122 101 -170 101 -43
0 -138 -24 -195 -49 -23 -10 -86 -58 -140 -106 -55 -48 -117 -96 -140 -106
-113 -52 -271 14 -330 137 -35 75 -30 187 16 310 46 123 121 191 280 254 167
65 293 138 391 224 115 101 126 126 111 235 -16 108 -47 182 -100 241 -65 73
-130 103 -218 103 -144 0 -234 -36 -398 -159 -142 -107 -193 -127 -307 -122
-100 4 -170 32 -202 82 -17 27 -18 42 -13 116 4 47 15 130 25 185 30 159 33
198 20 276 -18 107 -45 171 -97 229 -57 63 -102 90 -223 130 -124 42 -243 49
-346 21z m125 -35 c7 -8 43 -15 99 -19 322 -20 453 -215 382 -572 -30 -150
-37 -302 -16 -342 38 -75 164 -129 281 -120 101 8 166 36 292 131 159 119 248
156 376 156 92 0 186 -61 231 -148 24 -46 46 -146 46 -208 0 -56 -1 -59 -48
-104 -117 -113 -207 -167 -422 -257 -113 -47 -195 -97 -237 -147 -61 -73 -115
-233 -116 -346 -1 -120 66 -226 180 -282 54 -26 75 -31 130 -30 88 1 145 31
261 136 106 97 167 127 275 134 61 4 71 2 107 -23 72 -50 108 -130 130 -283
23 -164 -17 -316 -115 -441 -149 -190 -324 -261 -684 -280 -172 -9 -203 -21
-291 -110 -93 -94 -140 -211 -155 -388 -9 -104 4 -162 65 -294 28 -58 57 -137
65 -175 22 -104 31 -332 15 -389 -25 -90 -113 -145 -271 -168 -145 -21 -256
19 -331 118 -83 109 -101 221 -74 453 19 152 14 196 -24 245 -50 64 -262 126
-378 112 -108 -13 -202 -56 -333 -149 -184 -133 -396 -216 -548 -216 -102 0
-269 118 -333 237 -38 68 -59 164 -47 207 5 19 30 57 55 85 74 83 271 235 383
296 146 79 215 128 256 182 79 104 97 275 42 397 -37 81 -135 214 -172 234
-66 36 -229 15 -331 -44 -35 -20 -296 -286 -434 -443 -49 -54 -65 -59 -131
-41 -62 17 -115 73 -164 173 -61 123 -77 206 -79 397 -1 150 0 157 28 220 38
88 103 195 139 231 40 40 113 76 194 95 94 22 180 15 543 -48 269 -46 322 -52
450 -53 215 0 280 31 280 137 0 64 -22 113 -73 166 -87 90 -168 115 -472 142
-348 32 -432 54 -472 122 -51 86 -87 283 -65 355 32 106 128 173 277 194 79
12 81 11 230 -31 296 -83 329 -96 497 -192 82 -47 91 -50 143 -46 114 10 195
109 195 238 0 91 -18 135 -99 249 -80 112 -118 183 -127 239 -9 58 19 144 61
186 57 57 208 121 316 135 4 1 12 -5 18 -13z"/>
</g>
</svg>
