<?xml version="1.0" standalone="no"?>
<!DOCTYPE svg PUBLIC "-//W3C//DTD SVG 20010904//EN"
 "http://www.w3.org/TR/2001/REC-SVG-20010904/DTD/svg10.dtd">
<svg version="1.0" xmlns="http://www.w3.org/2000/svg"
 width="500.000000pt" height="500.000000pt" viewBox="0 0 500.000000 500.000000"
 preserveAspectRatio="xMidYMid meet">
<metadata>
Created by potrace 1.13, written by Peter Selinger 2001-2015
</metadata>
<g transform="translate(0.000000,500.000000) scale(0.100000,-0.100000)"
fill="#000000" stroke="none">
<path d="M2385 4742 c-130 -63 -180 -170 -155 -335 15 -99 3 -144 -53 -198
-50 -49 -114 -83 -185 -98 -29 -6 -70 -20 -91 -30 -45 -23 -98 -81 -107 -116
-14 -55 128 -286 276 -450 86 -94 114 -138 125 -197 9 -49 -7 -75 -55 -89
-135 -41 -328 109 -539 419 -243 356 -281 408 -330 458 -62 63 -117 91 -206
106 -125 21 -253 -21 -344 -112 -123 -123 -131 -251 -27 -415 50 -78 106 -131
210 -198 49 -32 112 -82 140 -110 127 -127 115 -221 -47 -369 -119 -109 -197
-163 -331 -230 -222 -111 -304 -223 -426 -577 -89 -261 -93 -505 -10 -626 48
-68 191 -201 233 -215 72 -23 161 12 191 74 23 49 20 74 -18 157 -80 174 -90
240 -53 350 31 92 81 170 165 260 90 96 159 134 279 151 148 22 328 -17 401
-85 59 -54 91 -168 71 -249 -10 -44 -25 -66 -101 -146 -77 -82 -97 -111 -148
-216 -67 -137 -94 -214 -109 -304 -26 -163 60 -344 191 -403 66 -29 146 -29
308 0 162 29 246 60 392 147 169 101 271 136 404 142 118 5 164 -10 236 -76
64 -60 88 -115 104 -243 26 -216 74 -335 176 -444 58 -63 62 -65 171 -99 223
-70 340 -82 462 -51 229 60 386 287 346 501 -24 131 -72 198 -184 256 -97 50
-201 146 -214 199 -19 70 28 248 86 332 50 70 116 120 150 112 14 -3 91 -35
171 -70 176 -77 246 -98 325 -98 78 0 192 36 258 82 111 78 156 246 107 398
-55 170 -157 260 -309 270 -86 6 -118 19 -137 55 -9 16 -40 57 -71 90 -90 98
-100 146 -48 248 31 61 101 124 210 190 182 110 256 215 259 366 1 63 -2 75
-29 114 -35 51 -128 114 -199 135 -124 37 -306 6 -493 -84 -268 -130 -383
-123 -452 29 -27 58 -26 120 0 173 12 24 95 115 193 214 94 94 185 195 203
225 39 64 65 160 57 205 -10 51 -85 127 -162 165 l-67 33 -215 0 c-118 1 -228
4 -245 9 -114 29 -219 73 -281 117 -38 27 -97 65 -131 86 -35 21 -63 43 -63
50 0 22 -39 34 -123 39 -76 5 -87 3 -142 -24z m238 -68 c26 -9 87 -44 135 -78
105 -76 160 -105 272 -142 82 -28 92 -28 300 -29 132 -1 230 -6 255 -13 56
-16 127 -63 160 -106 24 -31 27 -43 23 -85 -9 -96 -48 -152 -243 -351 -184
-188 -235 -258 -235 -320 0 -43 28 -123 59 -171 43 -64 97 -92 180 -92 90 1
133 14 291 87 157 74 251 100 370 100 77 1 92 -2 151 -31 39 -19 84 -52 109
-79 l42 -46 -4 -73 c-9 -140 -63 -211 -248 -324 -156 -96 -234 -191 -247 -300
-8 -67 10 -113 71 -179 29 -31 65 -76 79 -99 34 -54 64 -69 157 -78 165 -15
256 -101 300 -284 27 -114 -22 -255 -108 -309 -57 -36 -169 -72 -226 -72 -63
0 -175 35 -309 96 -140 64 -192 80 -232 70 -43 -11 -147 -121 -180 -191 -15
-32 -37 -105 -48 -161 -19 -89 -19 -106 -8 -145 19 -63 132 -172 238 -228 58
-31 89 -55 107 -81 91 -138 69 -335 -53 -472 -56 -63 -160 -114 -264 -129 -99
-15 -179 -3 -352 50 -125 39 -132 42 -180 93 -94 101 -145 232 -165 422 -12
120 -39 184 -106 256 -91 97 -206 128 -363 96 -120 -25 -196 -56 -340 -141
-150 -88 -227 -116 -392 -144 -166 -29 -213 -27 -280 7 -68 34 -112 92 -140
184 -38 124 -18 228 85 444 45 93 67 126 139 204 110 118 122 143 122 245 -1
212 -149 324 -430 325 -182 0 -271 -38 -394 -165 -85 -89 -149 -187 -181 -280
-17 -47 -21 -77 -18 -140 4 -70 11 -96 56 -201 58 -134 58 -152 6 -193 -19
-15 -41 -21 -75 -21 -48 0 -52 3 -130 77 -45 43 -94 97 -110 120 -91 132 -73
368 54 700 66 173 102 236 187 322 54 55 85 77 180 123 63 31 143 76 177 100
103 72 245 209 277 268 74 136 10 263 -205 406 -153 102 -230 195 -265 321
-25 92 -10 138 75 224 80 81 145 109 250 109 154 0 223 -49 373 -266 51 -74
136 -197 188 -273 52 -76 120 -169 150 -206 62 -76 185 -179 257 -215 96 -48
234 -34 262 26 33 74 -2 171 -104 284 -147 163 -285 370 -285 428 0 49 72 100
168 121 107 22 214 97 252 176 20 41 21 54 14 172 -8 163 9 214 90 264 24 14
44 17 120 13 50 -3 112 -12 139 -20z"/>
</g>
</svg>
